%TF.GenerationSoftware,KiCad,Pcbnew,(6.0.0)*%
%TF.CreationDate,2022-01-04T16:50:31+01:00*%
%TF.ProjectId,SurfaceCoil_PCB_Coupler,53757266-6163-4654-936f-696c5f504342,rev?*%
%TF.SameCoordinates,Original*%
%TF.FileFunction,Copper,L1,Top*%
%TF.FilePolarity,Positive*%
%FSLAX46Y46*%
G04 Gerber Fmt 4.6, Leading zero omitted, Abs format (unit mm)*
G04 Created by KiCad (PCBNEW (6.0.0)) date 2022-01-04 16:50:31*
%MOMM*%
%LPD*%
G01*
G04 APERTURE LIST*
%TA.AperFunction,NonConductor*%
%ADD10C,0.200000*%
%TD*%
%TA.AperFunction,WasherPad*%
%ADD11C,1.500000*%
%TD*%
G04 APERTURE END LIST*
D10*
X156070000Y-75670000D02*
X172010000Y-75670000D01*
X172010000Y-75670000D02*
X172010000Y-81650000D01*
X172010000Y-81650000D02*
X156070000Y-81650000D01*
X156070000Y-81650000D02*
X156070000Y-75670000D01*
G36*
X156070000Y-75670000D02*
G01*
X172010000Y-75670000D01*
X172010000Y-81650000D01*
X156070000Y-81650000D01*
X156070000Y-75670000D01*
G37*
X152570000Y-58190000D02*
X163370000Y-58190000D01*
X163370000Y-58190000D02*
X163370000Y-74220000D01*
X163370000Y-74220000D02*
X152570000Y-74220000D01*
X152570000Y-74220000D02*
X152570000Y-58190000D01*
G36*
X152570000Y-58190000D02*
G01*
X163370000Y-58190000D01*
X163370000Y-74220000D01*
X152570000Y-74220000D01*
X152570000Y-58190000D01*
G37*
X164660000Y-58180000D02*
X175460000Y-58180000D01*
X175460000Y-58180000D02*
X175460000Y-74210000D01*
X175460000Y-74210000D02*
X164660000Y-74210000D01*
X164660000Y-74210000D02*
X164660000Y-58180000D01*
G36*
X164660000Y-58180000D02*
G01*
X175460000Y-58180000D01*
X175460000Y-74210000D01*
X164660000Y-74210000D01*
X164660000Y-58180000D01*
G37*
X163555000Y-42310000D02*
X174375000Y-42310000D01*
X174375000Y-42310000D02*
X174375000Y-56900000D01*
X174375000Y-56900000D02*
X163555000Y-56900000D01*
X163555000Y-56900000D02*
X163555000Y-42310000D01*
G36*
X163555000Y-42310000D02*
G01*
X174375000Y-42310000D01*
X174375000Y-56900000D01*
X163555000Y-56900000D01*
X163555000Y-42310000D01*
G37*
X153480000Y-42340000D02*
X161960000Y-42340000D01*
X161960000Y-42340000D02*
X161960000Y-56900000D01*
X161960000Y-56900000D02*
X153480000Y-56900000D01*
X153480000Y-56900000D02*
X153480000Y-42340000D01*
G36*
X153480000Y-42340000D02*
G01*
X161960000Y-42340000D01*
X161960000Y-56900000D01*
X153480000Y-56900000D01*
X153480000Y-42340000D01*
G37*
D11*
%TO.P,,*%
%TO.N,*%
X155740000Y-65970000D03*
%TD*%
%TO.P,,*%
%TO.N,*%
X155540000Y-62970000D03*
%TD*%
%TO.P,,*%
%TO.N,*%
X155260000Y-59960000D03*
%TD*%
%TO.P,,*%
%TO.N,*%
X155160000Y-58460000D03*
%TD*%
%TO.P,,*%
%TO.N,*%
X155360000Y-61460000D03*
%TD*%
%TO.P,,*%
%TO.N,*%
X155640000Y-64470000D03*
%TD*%
%TO.P,,*%
%TO.N,*%
X172850000Y-58460000D03*
%TD*%
%TO.P,,*%
%TO.N,*%
X172500000Y-62950000D03*
%TD*%
%TO.P,,*%
%TO.N,*%
X172750000Y-59960000D03*
%TD*%
%TO.P,,*%
%TO.N,*%
X172400000Y-64450000D03*
%TD*%
%TO.P,,*%
%TO.N,*%
X172650000Y-61460000D03*
%TD*%
%TO.P,,*%
%TO.N,*%
X172300000Y-65950000D03*
%TD*%
M02*
